<svg version="1.2" xmlns="http://www.w3.org/2000/svg" viewBox="0 0 240 420" width="400" height="500">
	<title>man-svg</title>
	<style>
		.s5 { fill: #ffb5b5 } 
		.s6 { fill: #2f2e41 } 
		.s7 { fill: #6c63ff } 
		.s3 { fill: #e6e7e8 } 
	</style>
	<g>
		<g>
		</g>
	</g>
	<g>
	</g>
	<path class="s5" d="m165.4 366v26.2l19.8 0.7-0.8-26.9h-19z"/>
	<path class="s6" d="m161.4 380.6q-0.4 0-0.7 0.1c-3.6 1-24.3 19.5-30.6 25.2-0.8 0.7-1.2 1.7-1.1 2.7 0 1 0.5 2 1.4 2.6 4.7 3.4 14.5 8.8 26.3 6.6 5.4-1 10.9-1.6 15.7-2.2 10.4-1.2 18.5-2.1 18.5-5.8 0-6.2-1.7-22.6-3.8-23.3q-0.3 0-0.7 0.5c-3.3 4.6-14.6 2.1-15 2h-0.2v-0.1c-0.1-0.1-5.6-8.3-9.8-8.3z"/>
	<path class="s5" d="m128.3 366v26.2l19.8 0.7-0.8-26.9h-19z"/>
	<path class="s6" d="m120.3 178.3l-10.6 8-1.9 90.2 17.9 98.5 23.4 0.9 0.6-94 30.1-85.7-6.1-20.1-53.4 2.2z"/>
	<path class="s6" d="m169.5 193.7l10.3 2.5 7.3 178.8-26.5-2.3-17.6-126.3 26.5-52.7z"/>
	<path class="s6" d="m114.1 419c-9.1 0-16.5-4-20.4-6.8-1.2-0.8-2-2.1-2.1-3.5-0.1-1.5 0.5-2.9 1.6-3.9 9.8-8.8 26.8-23.7 30.2-24.7 4.4-1.3 10.4 7.2 11.1 8.3 1.3 0.3 11.4 2.2 14.3-1.8 0.5-0.7 1.1-0.8 1.4-0.7 3 1 4.3 20.7 4.3 23.9 0 4.3-8 5.2-19.1 6.5-4.8 0.5-10.3 1.2-15.7 2.2q-2.9 0.5-5.6 0.5z"/>
	<g>
		<path id="uuid-46ee5af5-9d9c-410b-bcbe-b186fda49c26-885" class="s5" d="m43 128.6c-7.6-2.9-12.3-9.3-10.3-14.3 1.9-5.1 9.8-6.8 17.4-4 3.1 1.2 5.9 3 8.1 5.5l32.4 12.7-6.6 15.5-31.3-14.1c-3.3 0.4-6.6-0.1-9.7-1.3z"/>
		<path class="s7" d="m120.7 70.1c11.7-0.4 21 9.6 19.7 21.3l-6.1 56.8c-0.6 6.2-6.7 10.4-12.7 8.7-21.7-5.1-24-4.3-42.5-13.2l8.8-18.3 17.2 1.9-3-36.4c-0.9-11 7.6-20.5 18.6-20.8q0 0 0 0z"/>
	</g>
	<path class="s5" d="m142.2 61.5l7.3 14.7-27.5 13.3 0.3-23.6 19.9-4.4z"/>
	<path class="s5" d="m122 72.6c-13.7 0-24.7-11.1-24.7-24.8 0-13.7 11-24.8 24.7-24.8 13.8 0 24.8 11.1 24.8 24.8 0 13.7-11 24.8-24.8 24.8z"/>
	<path class="s7" d="m121.9 83.8l25.4-15.1c18.6 13.1 34.1 16.2 34.6 38.9l-3.4 54.3 0.2 23.4c0.1 9.8-7.9 17.8-17.7 17.8h-36.2c-9.6 0-16.8-8.9-14.8-18.3l6.9-31.8-7.3-61.9 12.3-7.3q0 0 0 0z"/>
	<g>
		<path id="uuid-d50d4eeb-0cfe-450a-93b8-828ab300afdb-886" class="s5" d="m84.5 149.7c-7.9-2.1-13.1-8.1-11.6-13.3 1.4-5.2 9-7.7 17-5.6 3.2 0.8 6.1 2.4 8.5 4.7l33.5 9.5-5.2 16.2-32.4-11.2c-3.3 0.7-6.6 0.6-9.8-0.3z"/>
		<path class="s7" d="m156.3 84c11.6-1.4 21.8 7.7 21.7 19.4l-0.7 57.2c-0.1 6.2-5.8 10.9-11.9 9.8-22.1-3-20.6-0.7-39.9-7.8l2.4-20.8 18.3 0.7-6.5-36c-1.9-10.8 5.6-21.1 16.6-22.5q0 0 0 0z"/>
	</g>
	<path class="s6" d="m147.5 60.3l-4.6 3.3c0 0-1.3-14.3-3.2-15-1.8-0.6-4.3 2.7-4.3 2.7l-1.9 5.4-6-2.6c0 0-7-3.7-9.5-4.6-2.5-0.8-2.1-8-2.1-8 0 0-29.8 4.1-25.3-13.1 0 0 1.5-12.6 4.8-10.1 3.3 2.5 3.4-3.7 3.4-3.7l7.4-1.6c0 0 10.3-13.8 30.5-2.1 20.2 11.8 10.8 49.4 10.8 49.4q0 0 0 0z"/>
	<g>
		<path class="s3" d="m55.1 144.4h-16.5c-1.5 0-2.8-0.9-3.2-2.3-0.5-1.5-0.1-3 1.1-3.9l3.1-2.3c1.5-1.1 2.3-2.8 2.2-4.6l-0.9-23.5-6.6-8.2c-5-6.3-7.1-14.5-5.8-22.5l2.2-13.5h33.4l1.2 17.3c0.6 7.7-2.1 15.3-7.2 21l-5.3 6-0.8 23.1c-0.1 1.7 0.6 3.3 1.9 4.4l3.4 3c1.1 0.9 1.5 2.4 1 3.8-0.5 1.3-1.8 2.2-3.2 2.2z"/>
		<path class="s7" d="m34.5 68.8h25.5l0.9 13.2c0.4 5.9-1.6 11.8-5.6 16.3l-4.5 4.9h-8l-5.4-6.8c-3.9-4.9-5.6-11.2-4.5-17.4 0 0 1.6-10.2 1.6-10.2z"/>
	</g>
</svg>